<svg width="24" height="25" viewBox="0 0 24 25" fill="none" xmlns="http://www.w3.org/2000/svg">
<g id="CopySimple">
<path id="Vector" d="M16.9419 6.4653H3.44189C3.24298 6.4653 3.05222 6.54342 2.91156 6.68247C2.77091 6.82153 2.69189 7.01012 2.69189 7.20678V20.5534C2.69189 20.75 2.77091 20.9386 2.91156 21.0777C3.05222 21.2167 3.24298 21.2948 3.44189 21.2948H16.9419C17.1408 21.2948 17.3316 21.2167 17.4722 21.0777C17.6129 20.9386 17.6919 20.75 17.6919 20.5534V7.20678C17.6919 7.01012 17.6129 6.82153 17.4722 6.68247C17.3316 6.54342 17.1408 6.4653 16.9419 6.4653ZM16.1919 19.8119H4.19189V7.94825H16.1919V19.8119ZM20.6919 4.24087V17.5875C20.6919 17.7841 20.6129 17.9727 20.4722 18.1118C20.3316 18.2508 20.1408 18.3289 19.9419 18.3289C19.743 18.3289 19.5522 18.2508 19.4116 18.1118C19.2709 17.9727 19.1919 17.7841 19.1919 17.5875V4.98234H6.44189C6.24298 4.98234 6.05222 4.90422 5.91156 4.76517C5.77091 4.62612 5.69189 4.43752 5.69189 4.24087C5.69189 4.04421 5.77091 3.85562 5.91156 3.71656C6.05222 3.57751 6.24298 3.49939 6.44189 3.49939H19.9419C20.1408 3.49939 20.3316 3.57751 20.4722 3.71656C20.6129 3.85562 20.6919 4.04421 20.6919 4.24087Z" fill="white"/>
</g>
</svg>
