<svg width="32" height="32" viewBox="0 0 32 32" fill="none" xmlns="http://www.w3.org/2000/svg">
<g id="ShareFat">
<path id="Vector" d="M29.7075 13.2938L19.7075 3.29378C19.5677 3.15384 19.3896 3.0585 19.1956 3.01981C19.0016 2.98112 18.8006 3.00082 18.6178 3.07641C18.435 3.15201 18.2788 3.28011 18.1688 3.44451C18.0588 3.60892 18.0001 3.80224 18 4.00003V9.04378C14.7575 9.32128 11.1763 10.9088 8.23 13.4075C4.6825 16.4175 2.47375 20.2963 2.01 24.3288C1.97376 24.6423 2.03733 24.9592 2.19166 25.2345C2.34598 25.5098 2.58321 25.7294 2.86957 25.8621C3.15593 25.9947 3.47684 26.0337 3.78663 25.9734C4.09641 25.9131 4.37929 25.7566 4.595 25.5263C5.97 24.0625 10.8625 19.4338 18 19.0263V24C18.0001 24.1978 18.0588 24.3911 18.1688 24.5555C18.2788 24.7199 18.435 24.848 18.6178 24.9236C18.8006 24.9992 19.0016 25.0189 19.1956 24.9802C19.3896 24.9416 19.5677 24.8462 19.7075 24.7063L29.7075 14.7063C29.8945 14.5188 29.9995 14.2648 29.9995 14C29.9995 13.7352 29.8945 13.4812 29.7075 13.2938ZM20 21.5863V18C20 17.7348 19.8946 17.4805 19.7071 17.2929C19.5196 17.1054 19.2652 17 19 17C15.49 17 12.0713 17.9163 8.83875 19.725C7.19243 20.6503 5.65851 21.7627 4.2675 23.04C4.9925 20.06 6.82 17.2263 9.52375 14.9325C12.4263 12.4713 15.9688 11 19 11C19.2652 11 19.5196 10.8947 19.7071 10.7071C19.8946 10.5196 20 10.2652 20 10V6.41503L27.5863 14L20 21.5863Z" fill="white"/>
</g>
</svg>
